<?xml version="1.0" encoding="UTF-8" standalone="no"?>
<!-- Created with Inkscape (http://www.inkscape.org/) -->

<svg
   xmlns:dc="http://purl.org/dc/elements/1.1/"
   xmlns:cc="http://creativecommons.org/ns#"
   xmlns:rdf="http://www.w3.org/1999/02/22-rdf-syntax-ns#"
   xmlns:svg="http://www.w3.org/2000/svg"
   xmlns="http://www.w3.org/2000/svg"
   xmlns:sodipodi="http://sodipodi.sourceforge.net/DTD/sodipodi-0.dtd"
   xmlns:inkscape="http://www.inkscape.org/namespaces/inkscape"
   width="744.09448819"
   height="1052.3622047"
   id="svg2816"
   version="1.1"
   inkscape:version="0.47 r22583"
   sodipodi:docname="algorithm explanation.svg"
   inkscape:export-filename="C:\rdp\dev\p2pwebclient\thesis_presentation\algorithm explanation.png"
   inkscape:export-xdpi="43.720001"
   inkscape:export-ydpi="43.720001">
  <defs
     id="defs2818">
    <marker
       inkscape:stockid="Arrow1Lend"
       orient="auto"
       refY="0.0"
       refX="0.0"
       id="Arrow1Lend"
       style="overflow:visible;">
      <path
         id="path3662"
         d="M 0.0,0.0 L 5.0,-5.0 L -12.5,0.0 L 5.0,5.0 L 0.0,0.0 z "
         style="fill-rule:evenodd;stroke:#000000;stroke-width:1.0pt;marker-start:none;"
         transform="scale(0.8) rotate(180) translate(12.5,0)" />
    </marker>
    <inkscape:perspective
       sodipodi:type="inkscape:persp3d"
       inkscape:vp_x="0 : 526.18109 : 1"
       inkscape:vp_y="0 : 1000 : 0"
       inkscape:vp_z="744.09448 : 526.18109 : 1"
       inkscape:persp3d-origin="372.04724 : 350.78739 : 1"
       id="perspective2824" />
    <inkscape:perspective
       id="perspective3613"
       inkscape:persp3d-origin="0.5 : 0.33333333 : 1"
       inkscape:vp_z="1 : 0.5 : 1"
       inkscape:vp_y="0 : 1000 : 0"
       inkscape:vp_x="0 : 0.5 : 1"
       sodipodi:type="inkscape:persp3d" />
    <inkscape:perspective
       id="perspective3637"
       inkscape:persp3d-origin="0.5 : 0.33333333 : 1"
       inkscape:vp_z="1 : 0.5 : 1"
       inkscape:vp_y="0 : 1000 : 0"
       inkscape:vp_x="0 : 0.5 : 1"
       sodipodi:type="inkscape:persp3d" />
  </defs>
  <sodipodi:namedview
     id="base"
     pagecolor="#ffffff"
     bordercolor="#ffffff"
     borderopacity="0.0"
     inkscape:pageopacity="0.0"
     inkscape:pageshadow="0"
     inkscape:zoom="0.35"
     inkscape:cx="-78.387758"
     inkscape:cy="520"
     inkscape:document-units="px"
     inkscape:current-layer="layer1"
     showgrid="false"
     inkscape:window-width="1280"
     inkscape:window-height="968"
     inkscape:window-x="-4"
     inkscape:window-y="-4"
     inkscape:window-maximized="1" />
  <metadata
     id="metadata2821">
    <rdf:RDF>
      <cc:Work
         rdf:about="">
        <dc:format>image/svg+xml</dc:format>
        <dc:type
           rdf:resource="http://purl.org/dc/dcmitype/StillImage" />
        <dc:title></dc:title>
      </cc:Work>
    </rdf:RDF>
  </metadata>
  <g
     inkscape:label="Layer 1"
     inkscape:groupmode="layer"
     id="layer1">
    <path
       style="fill:none;stroke:#000000;stroke-width:1px;stroke-linecap:butt;stroke-linejoin:miter;stroke-opacity:1"
       d="m -605.71429,-119.06639 c 8.57143,1145.71429 8.57143,1145.71429 8.57143,1145.71429 l 1534.28572,-5.7143 0,0 2.85714,2.8572"
       id="path2826" />
    <text
       xml:space="preserve"
       style="font-size:40px;font-style:normal;font-weight:normal;fill:#000000;fill-opacity:1;stroke:none;font-family:Bitstream Vera Sans"
       x="100"
       y="1186.6479"
       id="text2828"><tspan
         sodipodi:role="line"
         id="tspan2830"
         x="100"
         y="1186.6479">Time (s)</tspan></text>
    <text
       xml:space="preserve"
       style="font-size:40px;font-style:normal;font-weight:normal;fill:#000000;fill-opacity:1;stroke:none;font-family:Bitstream Vera Sans"
       x="-1020.0001"
       y="569.50507"
       id="text2832"><tspan
         sodipodi:role="line"
         id="tspan2834"
         x="-1020.0001"
         y="569.50507">Download Speed</tspan></text>
    <path
       style="fill:none;stroke:#000000;stroke-width:0.78939325px;stroke-linecap:butt;stroke-linejoin:miter;stroke-opacity:1"
       d="m -425.81959,1018.2581 c 36.1957,0 72.3914,0 108.58709,0 9.52518,0 19.05037,0 28.57555,0 2.55386,0 13.37715,0.2836 14.28778,0 1.20484,-0.3754 1.57962,-1.5149 2.85755,-1.7802 3.03647,-0.6305 8.39375,0.6305 11.43022,0 2.0206,-0.4196 3.69451,-1.3606 5.71512,-1.7801 1.80727,-0.3754 4.36804,0.8391 5.7151,0 0.67354,-0.4197 -0.67353,-1.3606 0,-1.7802 1.34706,-0.8392 4.13003,0.6583 5.71511,0 2.24165,-0.931 3.61135,-2.5119 5.71511,-3.5603 2.85756,-1.1868 5.71511,-2.3735 8.57266,-3.5603 0.95252,0 2.0056,0.2654 2.85756,0 1.20485,-0.3753 1.65271,-1.4049 2.85756,-1.7801 2.28604,-0.7121 6.28662,0.712 8.57267,0 2.40969,-0.7506 4.22066,-2.1639 5.7151,-3.5603 0.52837,-0.49376 -0.85195,-1.51482 0,-1.78018 1.70392,-0.53074 3.84706,0.23274 5.71511,0 5.90727,-0.73601 11.30094,-2.65009 17.14533,-3.5603 1.52621,-0.23769 5.38889,0.30483 5.71511,0 1.67083,-1.56129 1.18673,-3.77915 2.85755,-5.34044 0.30047,-0.28076 6.72711,0.38323 8.57267,0 2.55588,-0.53074 3.30541,-2.80973 5.71511,-3.5603 0.85196,-0.26537 2.00559,0.26537 2.85756,0 1.20485,-0.37529 1.6527,-1.40486 2.85755,-1.78015 0.85196,-0.26536 2.06502,0.32915 2.85756,0 2.24164,-0.93097 3.47345,-2.62932 5.7151,-3.56029 1.58509,-0.6583 4.0112,0.53073 5.71512,0 2.4097,-0.75058 3.30541,-2.80972 5.7151,-3.5603 1.70392,-0.53073 4.0112,0.53074 5.71512,0 1.20485,-0.37529 1.73673,-1.31466 2.85755,-1.78015 1.77219,-0.736 3.94293,-1.04414 5.71511,-1.78014 2.24165,-0.93098 3.30541,-2.80972 5.71511,-3.5603 0.85196,-0.26537 2.0056,0.26537 2.85756,0 2.4097,-0.75058 3.30541,-2.80972 5.7151,-3.56029 0.85197,-0.26537 2.55634,0.56292 2.85756,0 0.90364,-1.6888 -1.27794,-3.74824 0,-5.34045 0.95252,-1.18677 3.94294,-1.04415 5.71511,-1.78015 1.120827,-0.46549 1.652706,-1.40486 2.857556,-1.78015 0.851958,-0.26537 2.184023,0.41959 2.857556,0 0.673532,-0.41958 -0.673533,-1.36056 0,-1.78014 0.673532,-0.41959 2.005596,0.26537 2.857555,0 3.429065,-1.06809 5.143599,-4.27236 8.572664,-5.34045 0.851959,-0.26537 2.005597,0.26537 2.857555,0 1.732537,-0.53965 10.206401,-6.5488 11.43022,-7.12059 1.703917,-0.7961 4.209047,-0.84193 5.71511,-1.78015 0.673532,-0.41958 -0.301212,-1.21721 0,-1.78015 0.673532,-1.25875 2.184023,-2.30154 2.857555,-3.56029 0.301213,-0.56293 -0.425979,-1.24941 0,-1.78015 0.602426,-0.75057 2.431576,-0.98404 2.857555,-1.78015 0.602425,-1.12586 -1.056724,-2.57285 0,-3.56029 2.333953,-2.18095 7.109493,-0.8258 8.572665,-3.5603 0.602426,-1.12587 0,-2.37353 0,-3.5603 0,-0.59338 -0.425979,-1.2494 0,-1.78014 0.602426,-0.75058 2.110338,-1.08192 2.857555,-1.78015 1.181453,-1.104 1.761733,-2.42254 2.857555,-3.5603 1.766961,-1.83458 4.179221,-3.42684 5.715111,-5.34044 0.425979,-0.53074 -0.301213,-1.21722 0,-1.78015 0.673532,-1.25875 2.184023,-2.30154 2.857555,-3.56029 0.857266,-1.60214 -0.857267,-3.73831 0,-5.34045 1.987646,-3.71468 6.585017,-5.18606 8.572664,-8.90074 0.801956,-1.49876 -0.850645,-7.8409 0,-8.90074 1.53589,-1.9136 4.179221,-3.42684 5.71511,-5.34044 0.42598,-0.53074 -0.301212,-1.21722 0,-1.78015 0.673533,-1.25876 2.184023,-2.30154 2.857556,-3.5603 0.301212,-0.56293 -0.301213,-1.21721 0,-1.78014 0.673532,-1.25876 2.184023,-2.30154 2.857555,-3.5603 0.602425,-1.12586 -0.46204,-2.40896 0,-3.56029 3.158767,-7.87117 2.857555,-2.84174 2.857555,-7.1206 0,-0.99462 -0.562106,-7.85023 0,-8.90074 0.673532,-1.25875 2.1840222,-2.30154 2.8575544,-3.56029 0.9430886,-1.76253 -1.0018487,-7.02841 0,-8.90075 1.086038,-2.02967 4.1792203,-3.42684 5.71511,-5.34044 0.9263421,-1.15415 -0.8973814,-9.00378 0,-10.68088 0.6735322,-1.25876 2.18402284,-2.30155 2.85755502,-3.5603 0.53740941,-1.00436 0,-4.1707 0,-5.34045 0,-5.34044 0,-10.68089 0,-16.02132 0,-0.60646 -0.51550895,-6.15717 0,-7.1206 6.89948698,-12.89435 -0.82384365,2.8066 5.71510998,-5.34044 0.9130199,-1.13756 -0.7666814,-5.68775 0,-7.1206 0.6735322,-1.25875 2.1840228,-2.30154 2.8575551,-3.56029 2.8354865,-5.29921 -6.7663205,3.65252 2.8575545,-5.34044 0.747218,-0.69823 2.25513,-1.02958 2.857555,-1.78015 1.347064,-1.67834 2.127007,-3.52003 2.857555,-5.34045 0.23102,-0.57566 -0.673532,-1.36056 0,-1.78014 0.673532,-0.41959 2.184023,0.41958 2.857555,0 0.78189,-0.48709 -0.775093,-6.15489 0,-7.1206 0.602426,-0.75057 2.431576,-0.98404 2.857556,-1.78015 1.20485,-2.25172 -1.703917,-4.99764 0,-7.12059 0.425979,-0.53074 2.184023,0.41959 2.857555,0 1.347064,-0.83917 -0.851959,-2.49882 0,-3.5603 6.538953,-8.14703 -1.184377,7.55392 5.715109,-5.34043 0.301213,-0.56294 -0.673532,-1.36057 0,-1.78016 0.673532,-0.41958 2.431577,0.53074 2.857555,0 0.851959,-1.06147 -0.602425,-2.43443 0,-3.56029 0.42598,-0.79611 2.25513,-1.02957 2.857555,-1.78015 0.42598,-0.53074 -0.528362,-1.28642 0,-1.78015 1.494434,-1.39646 4.51026,-2.05914 5.715111,-3.56029 1.277937,-1.59221 -1.277938,-3.74824 0,-5.34044 1.20485,-1.50116 4.510258,-2.05915 5.71511,-3.5603 0.867585,-1.08095 -0.867586,-9.59994 0,-10.68089 1.204851,-1.50115 4.510258,-2.05915 5.715109,-3.56029 0.42598,-0.53075 -0.301212,-1.21722 0,-1.78015 0.673532,-1.25876 2.184023,-2.30155 2.857555,-3.5603 0.55177,-1.03119 0,-5.57795 0,-7.12059 0,-4.74706 0,-9.49413 0,-14.24118 0,-0.80171 -0.434825,-4.79869 0,-5.34045 0.602426,-0.75058 2.25513,-1.02957 2.857555,-1.78015 0.380768,-0.4744 0,-9.87556 0,-10.68088 0,-0.59339 0,-1.18677 0,-1.78016 0,-0.59338 -0.673532,-1.36055 0,-1.78014 0.673533,-0.41958 2.329193,0.49372 2.857556,0 3.286957,-3.07147 2.857555,-5.67517 2.857555,-8.90074 0,-0.59338 0,-1.18677 0,-1.78015 0,-0.59338 -0.42598,-1.24941 0,-1.78015 1.204851,-1.50115 4.510258,-2.05914 5.715109,-3.56029 0.851959,-1.06148 -0.851958,-2.49882 0,-3.5603 0.602426,-0.75058 2.25513,-1.02957 2.857555,-1.78014 0.42598,-0.53075 0,-1.18678 0,-1.78016 0,-2.96691 0,-5.93382 0,-8.90073 0,-0.59339 0,-1.18677 0,-1.78015 0,-0.59338 -0.425978,-1.24941 0,-1.78015 0.602426,-0.75057 2.25513,-1.02957 2.857555,-1.78015 0.566499,-0.70581 -0.584188,-4.97651 0,-5.34044 0.673533,-0.41959 2.184023,0.41958 2.857556,0 1.347064,-0.83917 -1.347065,-2.72113 0,-3.5603 0.673532,-0.41958 2.184023,0.41959 2.857555,0 0.673532,-0.41958 -0.673532,-1.36056 0,-1.78015 0.17738,-5.01243 6.442769,-0.4533 8.572664,-1.78014 1.347064,-0.83917 -1.347064,-2.72113 0,-3.5603 0.673532,-0.41959 2.184023,0.41958 2.857555,0 5.912379,-3.68319 -9.034904,0.14398 2.857555,-3.5603 0.851959,-0.26537 2.005598,0.26537 2.857556,0 1.204858,-0.37528 1.652708,-1.40485 2.857548,-1.78014 0.85197,-0.26537 1.95393,0.18764 2.85757,0 5.70219,-1.18409 5.72801,-2.37622 11.43021,-3.5603 0.90364,-0.18765 2.00559,0.26537 2.85756,0 1.20485,-0.37529 1.6527,-1.40486 2.85755,-1.78015 0.85196,-0.26537 1.90503,0 2.85756,0 1.90504,0 3.90783,0.37529 5.71511,0 1.27793,-0.26537 1.6527,-1.40486 2.85755,-1.78014 0.85196,-0.26537 1.95392,0.18764 2.85756,0 2.02059,-0.41959 3.64881,-1.45835 5.7151,-1.78016 3.69632,-0.57566 7.81567,0.75058 11.43022,0 1.27795,-0.26537 1.57962,-1.51477 2.85756,-1.78014 0.0129,-0.002 8.56994,0.002 8.57267,0 0.67353,-0.41959 -0.67354,-1.36057 0,-1.78015 0.67353,-0.41959 1.90504,0 2.85755,0 0.95252,0 1.90504,0 2.85756,0 7.62014,0 15.24029,0 22.86043,0 15.2403,0 30.48059,0 45.72089,0 0.14808,0 23.96697,-0.3636 25.718,0 4.04119,0.83917 7.51485,2.51496 11.43021,3.56029 2.76858,0.73917 5.61904,1.41215 8.57267,1.78016 1.86804,0.23274 4.01119,-0.53074 5.71511,0 4.25979,1.32684 7.34632,3.81397 11.43021,5.34044 1.63356,0.61059 3.90784,-0.37529 5.71512,0 2.02059,0.41958 3.81007,1.18677 5.7151,1.78015 3.81008,1.18676 7.51486,2.51495 11.43023,3.56029 2.76858,0.73917 5.87853,0.94098 8.57266,1.78015 1.20485,0.37529 1.65271,1.40486 2.85756,1.78015 0.85195,0.26537 2.00559,-0.26537 2.85755,0 1.20486,0.37529 1.65271,1.40486 2.85755,1.78015 0.85197,0.26537 2.0056,-0.26538 2.85757,0 1.20484,0.37528 1.90503,1.18676 2.85755,1.78014 0.95252,0.59338 2.25512,1.02958 2.85755,1.78015 0.42598,0.53074 0,1.18677 0,1.78015 0,1.18676 0,2.37353 0,3.5603 0,4.74705 0,9.49412 0,14.24118 0,1.51071 -0.52511,9.69953 0,10.68089 0.42598,0.7961 2.25514,1.02957 2.85755,1.78015 0.5167,0.64376 0,7.66257 0,8.90073 0,2.96692 0,5.93383 0,8.90075 0,1.18676 -0.60241,2.43443 0,3.56029 0.67354,1.25876 2.34099,2.27307 2.85756,3.5603 0.92408,2.30266 -1.20485,4.86886 0,7.12059 0.42598,0.7961 2.43158,0.98404 2.85756,1.78014 0.60242,1.12587 -0.85197,2.49883 0,3.5603 0.42598,0.53074 2.18402,-0.41958 2.85755,0 1.34706,0.83917 -1.34707,2.72113 0,3.5603 0.67354,0.41958 2.18402,-0.41959 2.85756,0 0.67353,0.41958 -0.67354,1.36056 0,1.78015 1.50606,0.93821 4.20904,0.84192 5.71511,1.78014 1.34706,0.83917 -1.34707,2.72113 0,3.5603 1.34706,0.83917 4.01119,-0.53074 5.71511,0 5.20336,1.62075 1.67507,1.35038 2.85755,3.5603 0.67354,1.25875 1.57962,2.49882 2.85755,3.56029 13.25472,11.00957 0.59347,1.07493 8.57267,3.5603 0.547,0.17038 11.15673,6.77983 11.43022,7.12059 0.85196,1.06147 -0.60243,2.43443 0,3.5603 0.67354,1.25875 2.18402,2.30154 2.85756,3.56029 0.30121,0.56293 -0.42598,1.24941 0,1.78015 0.60242,0.75058 2.25513,1.02957 2.85755,1.78015 0.85196,1.06147 -1.34706,2.72113 0,3.5603 1.50607,0.93821 4.20905,0.84192 5.71511,1.78014 1.50606,0.93822 1.35149,2.62208 2.85756,3.5603 0.67353,0.41958 1.90503,0 2.85755,0 0.95252,0.59338 2.11034,1.08191 2.85755,1.78015 1.18146,1.10399 2.18403,2.30154 2.85757,3.56029 0.30121,0.56293 -0.67354,1.36056 0,1.78015 0.67352,0.41958 2.18401,-0.41959 2.85755,0 0.67353,0.41958 -0.67354,1.36056 0,1.78015 1.34706,0.83917 4.01119,-0.53074 5.7151,0 1.20486,0.37529 1.65271,1.40485 2.85756,1.78014 1.70392,0.53074 4.13003,-0.65829 5.71511,0 2.24165,0.93098 3.47346,2.62933 5.71511,3.5603 1.0645,0.4421 9.59205,-0.3817 11.43022,0 2.0206,0.41958 3.69451,1.36057 5.71512,1.78015 2.71091,0.56293 5.7706,-0.34912 8.57265,0 2.95364,0.368 5.65048,1.32504 8.57267,1.78014 1.84816,0.28784 3.81008,0 5.71511,0 4.76259,0 9.52519,0 14.28777,0 0.95252,0 1.95393,-0.18764 2.85757,0 2.02059,0.41959 3.69451,1.36057 5.7151,1.78016 0.90364,0.18764 1.93348,-0.14392 2.85755,0 2.9222,0.4551 5.61903,1.41214 8.57267,1.78014 1.86805,0.23274 3.81008,0 5.71511,0 5.71511,0 11.43022,0 17.14534,0 1.90503,0 3.90783,-0.37529 5.7151,0 2.0206,0.41959 3.69451,1.36057 5.71511,1.78015 1.80728,0.37529 3.81007,0 5.71511,0 2.85756,0 5.71511,0 8.57267,0 7.62014,0 15.24029,0 22.86043,0 22.86045,0 45.72089,0 68.58132,0 5.71512,0 11.43022,0 17.14534,0 1.90503,0 3.81007,0 5.71511,0 1.90504,0 4.01119,0.53074 5.71511,0 2.4097,-0.75057 3.0733,-3.23115 5.71511,-3.56029 7.47217,-0.93098 15.24029,0 22.86044,0 8.57266,0 17.14533,0 25.718,0 5.7151,0 11.43022,0 17.14532,0 1.90503,0 3.94633,0.44075 5.71511,0 3.18872,-0.79459 5.27045,-2.97255 8.57267,-3.5603 3.66348,-0.65206 7.62014,0 11.43022,0 6.66763,0 13.33525,0 20.00288,0 47.62592,0 95.25183,0 142.87775,0 17.14533,0 34.29067,0 51.43598,0 6.6676,0 13.3353,0 20.0029,0 2.8576,0 5.7151,0 8.5727,0 0.9525,0 2.8575,-0.59338 2.8575,0 0,0.59338 -1.905,0 -2.8575,0 -5.7151,0 -11.4303,0 -17.1454,0 -1.905,0 -3.81,0 -5.7151,0 -0.9525,0 -2.0056,-0.26537 -2.8575,0 -1.2049,0.37529 -1.6528,1.40486 -2.8576,1.78014 -1.0334,0.32189 -12.30021,0 -14.28776,0 -12.38274,0 -24.76548,0 -37.14822,0"
       id="path2838" />
    <text
       xml:space="preserve"
       style="font-size:40px;font-style:normal;font-weight:normal;fill:#000000;fill-opacity:1;stroke:none;font-family:Bitstream Vera Sans"
       x="-162.85715"
       y="1083.7908"
       id="text2840"><tspan
         sodipodi:role="line"
         id="tspan2842"
         x="-162.85715"
         y="1083.7908">T</tspan></text>
    <text
       xml:space="preserve"
       style="font-size:40px;font-style:normal;font-weight:normal;fill:#000000;fill-opacity:1;stroke:none;font-family:Bitstream Vera Sans"
       x="-1025.7144"
       y="1143.7908"
       id="text2844"><tspan
         sodipodi:role="line"
         id="tspan2846"
         x="-1025.7144"
         y="1143.7908">Start download</tspan></text>
    <path
       style="fill:none;stroke:#000000;stroke-width:2;stroke-linecap:butt;stroke-linejoin:miter;stroke-opacity:1;marker-end:url(#Arrow1Lend);stroke-miterlimit:4;stroke-dasharray:none"
       d="m -731.42857,1098.0765 c 108.57143,-68.5715 108.57143,-68.5715 108.57143,-68.5715"
       id="path2848" />
    <text
       xml:space="preserve"
       style="font-size:40px;font-style:normal;font-weight:normal;fill:#000000;fill-opacity:1;stroke:none;font-family:Bitstream Vera Sans"
       x="-677.14288"
       y="689.50507"
       id="text2850"><tspan
         sodipodi:role="line"
         id="tspan2852"
         x="-677.14288"
         y="689.50507">R</tspan></text>
    <path
       style="fill:none;stroke:#ff0000;stroke-width:1;stroke-linecap:butt;stroke-linejoin:miter;stroke-opacity:1;stroke-miterlimit:4;stroke-dasharray:2,1;stroke-dashoffset:0"
       d="M -145.71429,695.21933 1002.8571,678.07647"
       id="path2854" />
    <path
       style="fill:none;stroke:#00d100;stroke-width:2.304;stroke-linecap:butt;stroke-linejoin:miter;stroke-miterlimit:4;stroke-opacity:1;stroke-dasharray:9.216,4.608;stroke-dashoffset:0"
       d="m -154.58352,934.92151 6.3099,86.30989"
       id="path2827" />
    <path
       style="fill:none;stroke:#000000;stroke-width:0.78771412px;stroke-linecap:butt;stroke-linejoin:miter;stroke-opacity:1"
       d="m 388.85714,660.17243 c 0,46.09382 0,46.09382 0,46.09382"
       id="path3601" />
    <path
       style="fill:none;stroke:#000000;stroke-width:0.76324475px;stroke-linecap:butt;stroke-linejoin:miter;stroke-opacity:1"
       d="m 531.42857,659.29631 c 0,43.27458 0,43.27458 0,43.27458"
       id="path3601-1" />
    <text
       xml:space="preserve"
       style="font-size:40px;font-style:normal;font-weight:normal;fill:#000000;fill-opacity:1;stroke:none;font-family:Bitstream Vera Sans"
       x="438.52402"
       y="643.82153"
       id="text2850-7"><tspan
         sodipodi:role="line"
         id="tspan2852-4"
         x="438.52402"
         y="643.82153">W</tspan></text>
    <path
       style="fill:none;stroke:#000000;stroke-width:1.36627626;stroke-linecap:butt;stroke-linejoin:miter;stroke-miterlimit:4;stroke-opacity:1;stroke-dasharray:5.46510507, 1.36627627;stroke-dashoffset:0"
       d="m 391.61173,686.46479 c 133.91943,-5.34796 133.91943,-5.34796 133.91943,-5.34796 l 0,0"
       id="path3654" />
  </g>
</svg>
